<mxfile host="app.diagrams.net" modified="2020-09-25T06:33:01.158Z" agent="5.0 (Windows NT 10.0; Win64; x64) AppleWebKit/537.36 (KHTML, like Gecko) Chrome/85.0.4183.102 Safari/537.36" etag="JdnMZ5rYoSrk5K6GkJNv" version="13.7.5" type="github">
  <diagram id="cPPuk2STMzkrAS2KCKt9" name="Page-1">
    <mxGraphModel dx="1038" dy="580" grid="1" gridSize="10" guides="1" tooltips="1" connect="1" arrows="1" fold="1" page="1" pageScale="1" pageWidth="850" pageHeight="1100" math="0" shadow="0">
      <root>
        <mxCell id="0" />
        <mxCell id="1" parent="0" />
        <mxCell id="ahGDCeKN8Fh46faBmXRb-23" style="edgeStyle=orthogonalEdgeStyle;rounded=0;orthogonalLoop=1;jettySize=auto;html=1;entryX=1;entryY=0.5;entryDx=0;entryDy=0;" edge="1" parent="1" source="ahGDCeKN8Fh46faBmXRb-1" target="ahGDCeKN8Fh46faBmXRb-22">
          <mxGeometry relative="1" as="geometry" />
        </mxCell>
        <mxCell id="ahGDCeKN8Fh46faBmXRb-1" value="Patent application via browser" style="shape=image;html=1;verticalAlign=top;verticalLabelPosition=bottom;labelBackgroundColor=#ffffff;imageAspect=0;aspect=fixed;image=https://cdn0.iconfinder.com/data/icons/flat-round-system/512/internet_explorer-128.png" vertex="1" parent="1">
          <mxGeometry x="720" y="20" width="50" height="50" as="geometry" />
        </mxCell>
        <mxCell id="ahGDCeKN8Fh46faBmXRb-34" style="edgeStyle=none;rounded=0;orthogonalLoop=1;jettySize=auto;html=1;exitX=0.5;exitY=1;exitDx=0;exitDy=0;" edge="1" parent="1" source="ahGDCeKN8Fh46faBmXRb-4">
          <mxGeometry relative="1" as="geometry">
            <mxPoint x="310" y="220" as="targetPoint" />
          </mxGeometry>
        </mxCell>
        <mxCell id="ahGDCeKN8Fh46faBmXRb-4" value="" style="image;html=1;image=img/lib/clip_art/networking/Firewall_02_128x128.png" vertex="1" parent="1">
          <mxGeometry x="270" y="150" width="80" height="60" as="geometry" />
        </mxCell>
        <mxCell id="ahGDCeKN8Fh46faBmXRb-5" value="" style="rounded=0;whiteSpace=wrap;html=1;" vertex="1" parent="1">
          <mxGeometry x="90" y="230" width="700" height="350" as="geometry" />
        </mxCell>
        <mxCell id="ahGDCeKN8Fh46faBmXRb-6" value="View" style="rounded=1;whiteSpace=wrap;html=1;" vertex="1" parent="1">
          <mxGeometry x="580" y="250" width="190" height="200" as="geometry" />
        </mxCell>
        <mxCell id="ahGDCeKN8Fh46faBmXRb-7" value="Controller" style="rounded=1;whiteSpace=wrap;html=1;" vertex="1" parent="1">
          <mxGeometry x="100" y="250" width="470" height="200" as="geometry" />
        </mxCell>
        <mxCell id="ahGDCeKN8Fh46faBmXRb-8" value="" style="rounded=1;whiteSpace=wrap;html=1;" vertex="1" parent="1">
          <mxGeometry x="100" y="460" width="660" height="50" as="geometry" />
        </mxCell>
        <mxCell id="ahGDCeKN8Fh46faBmXRb-9" value="" style="rounded=1;whiteSpace=wrap;html=1;" vertex="1" parent="1">
          <mxGeometry x="100" y="520" width="430" height="50" as="geometry" />
        </mxCell>
        <mxCell id="ahGDCeKN8Fh46faBmXRb-10" value="" style="rounded=1;whiteSpace=wrap;html=1;" vertex="1" parent="1">
          <mxGeometry x="560" y="520" width="200" height="50" as="geometry" />
        </mxCell>
        <mxCell id="ahGDCeKN8Fh46faBmXRb-11" value="Authentication and authorization&amp;nbsp;" style="rounded=1;whiteSpace=wrap;html=1;" vertex="1" parent="1">
          <mxGeometry x="120" y="260" width="430" height="20" as="geometry" />
        </mxCell>
        <mxCell id="ahGDCeKN8Fh46faBmXRb-12" value="IDF Approval" style="rounded=1;whiteSpace=wrap;html=1;" vertex="1" parent="1">
          <mxGeometry x="120" y="298" width="110" height="40" as="geometry" />
        </mxCell>
        <mxCell id="ahGDCeKN8Fh46faBmXRb-13" value="File creation&amp;nbsp;" style="rounded=1;whiteSpace=wrap;html=1;" vertex="1" parent="1">
          <mxGeometry x="120" y="350" width="110" height="40" as="geometry" />
        </mxCell>
        <mxCell id="ahGDCeKN8Fh46faBmXRb-14" value="Indian /International" style="rounded=1;whiteSpace=wrap;html=1;" vertex="1" parent="1">
          <mxGeometry x="120" y="400" width="110" height="40" as="geometry" />
        </mxCell>
        <mxCell id="ahGDCeKN8Fh46faBmXRb-15" value="Service Request" style="rounded=1;whiteSpace=wrap;html=1;" vertex="1" parent="1">
          <mxGeometry x="236" y="299" width="110" height="40" as="geometry" />
        </mxCell>
        <mxCell id="ahGDCeKN8Fh46faBmXRb-16" value="Prosecution &amp;amp; Maintenance" style="rounded=1;whiteSpace=wrap;html=1;" vertex="1" parent="1">
          <mxGeometry x="236" y="400" width="110" height="40" as="geometry" />
        </mxCell>
        <mxCell id="ahGDCeKN8Fh46faBmXRb-17" value="Marketing" style="rounded=1;whiteSpace=wrap;html=1;" vertex="1" parent="1">
          <mxGeometry x="360" y="298" width="110" height="40" as="geometry" />
        </mxCell>
        <mxCell id="ahGDCeKN8Fh46faBmXRb-18" value="Document Upload" style="rounded=1;whiteSpace=wrap;html=1;" vertex="1" parent="1">
          <mxGeometry x="360" y="350" width="110" height="40" as="geometry" />
        </mxCell>
        <mxCell id="ahGDCeKN8Fh46faBmXRb-19" value="Report" style="rounded=1;whiteSpace=wrap;html=1;" vertex="1" parent="1">
          <mxGeometry x="360" y="400" width="110" height="40" as="geometry" />
        </mxCell>
        <mxCell id="ahGDCeKN8Fh46faBmXRb-31" style="edgeStyle=none;rounded=0;orthogonalLoop=1;jettySize=auto;html=1;" edge="1" parent="1" source="ahGDCeKN8Fh46faBmXRb-22" target="ahGDCeKN8Fh46faBmXRb-24">
          <mxGeometry relative="1" as="geometry" />
        </mxCell>
        <mxCell id="ahGDCeKN8Fh46faBmXRb-22" value="External PIS" style="shape=process;whiteSpace=wrap;html=1;backgroundOutline=1;fillColor=#d5e8d4;strokeColor=#82b366;" vertex="1" parent="1">
          <mxGeometry x="480" y="15" width="120" height="60" as="geometry" />
        </mxCell>
        <mxCell id="ahGDCeKN8Fh46faBmXRb-32" style="edgeStyle=none;rounded=0;orthogonalLoop=1;jettySize=auto;html=1;exitX=0.28;exitY=0.99;exitDx=0;exitDy=0;exitPerimeter=0;" edge="1" parent="1" source="ahGDCeKN8Fh46faBmXRb-24" target="ahGDCeKN8Fh46faBmXRb-4">
          <mxGeometry relative="1" as="geometry" />
        </mxCell>
        <mxCell id="ahGDCeKN8Fh46faBmXRb-24" value="" style="html=1;dashed=0;whitespace=wrap;fillColor=#2875E2;strokeColor=#ffffff;points=[[0.005,0.63,0],[0.1,0.2,0],[0.9,0.2,0],[0.5,0,0],[0.995,0.63,0],[0.72,0.99,0],[0.5,1,0],[0.28,0.99,0]];shape=mxgraph.kubernetes.icon;prIcon=api" vertex="1" parent="1">
          <mxGeometry x="375" y="80" width="50" height="48" as="geometry" />
        </mxCell>
        <mxCell id="ahGDCeKN8Fh46faBmXRb-37" style="edgeStyle=none;rounded=0;orthogonalLoop=1;jettySize=auto;html=1;exitX=0;exitY=0.5;exitDx=0;exitDy=0;entryX=0.828;entryY=0.829;entryDx=0;entryDy=0;entryPerimeter=0;" edge="1" parent="1" source="ahGDCeKN8Fh46faBmXRb-35" target="ahGDCeKN8Fh46faBmXRb-24">
          <mxGeometry relative="1" as="geometry" />
        </mxCell>
        <mxCell id="ahGDCeKN8Fh46faBmXRb-41" value="Update" style="edgeLabel;html=1;align=center;verticalAlign=middle;resizable=0;points=[];" vertex="1" connectable="0" parent="ahGDCeKN8Fh46faBmXRb-37">
          <mxGeometry x="-0.5545" relative="1" as="geometry">
            <mxPoint as="offset" />
          </mxGeometry>
        </mxCell>
        <mxCell id="ahGDCeKN8Fh46faBmXRb-35" value="Accounting System" style="shape=process;whiteSpace=wrap;html=1;backgroundOutline=1;fillColor=#d5e8d4;strokeColor=#82b366;" vertex="1" parent="1">
          <mxGeometry x="480" y="110" width="120" height="60" as="geometry" />
        </mxCell>
        <mxCell id="ahGDCeKN8Fh46faBmXRb-39" style="edgeStyle=none;rounded=0;orthogonalLoop=1;jettySize=auto;html=1;entryX=0.5;entryY=1;entryDx=0;entryDy=0;" edge="1" parent="1" source="ahGDCeKN8Fh46faBmXRb-38" target="ahGDCeKN8Fh46faBmXRb-35">
          <mxGeometry relative="1" as="geometry" />
        </mxCell>
        <mxCell id="ahGDCeKN8Fh46faBmXRb-40" value="Send request for payment" style="edgeLabel;html=1;align=center;verticalAlign=middle;resizable=0;points=[];" vertex="1" connectable="0" parent="ahGDCeKN8Fh46faBmXRb-39">
          <mxGeometry x="0.3093" relative="1" as="geometry">
            <mxPoint as="offset" />
          </mxGeometry>
        </mxCell>
        <mxCell id="ahGDCeKN8Fh46faBmXRb-38" value="Payment &amp;amp;&amp;nbsp;&lt;br&gt;Receipt" style="rounded=1;whiteSpace=wrap;html=1;" vertex="1" parent="1">
          <mxGeometry x="480" y="299" width="70" height="141" as="geometry" />
        </mxCell>
        <mxCell id="ahGDCeKN8Fh46faBmXRb-42" value="Request" style="text;html=1;align=center;verticalAlign=middle;resizable=0;points=[];autosize=1;" vertex="1" parent="1">
          <mxGeometry x="420" y="70" width="60" height="20" as="geometry" />
        </mxCell>
      </root>
    </mxGraphModel>
  </diagram>
</mxfile>
